<?xml version="1.0" encoding="utf-8" standalone="no"?>
<!DOCTYPE svg PUBLIC "-//W3C//DTD SVG 1.1//EN"
  "http://www.w3.org/Graphics/SVG/1.1/DTD/svg11.dtd">
<svg xmlns:xlink="http://www.w3.org/1999/xlink" width="1440pt" height="1440pt" viewBox="0 0 1440 1440" xmlns="http://www.w3.org/2000/svg" version="1.1">
 <metadata>
  <rdf:RDF xmlns:dc="http://purl.org/dc/elements/1.1/" xmlns:cc="http://creativecommons.org/ns#" xmlns:rdf="http://www.w3.org/1999/02/22-rdf-syntax-ns#">
   <cc:Work>
    <dc:type rdf:resource="http://purl.org/dc/dcmitype/StillImage"/>
    <dc:date>2025-05-19T12:10:26.764551</dc:date>
    <dc:format>image/svg+xml</dc:format>
    <dc:creator>
     <cc:Agent>
      <dc:title>Matplotlib v3.10.0, https://matplotlib.org/</dc:title>
     </cc:Agent>
    </dc:creator>
   </cc:Work>
  </rdf:RDF>
 </metadata>
 <defs>
  <style type="text/css">*{stroke-linejoin: round; stroke-linecap: butt}</style>
 </defs>
 <g id="figure_1">
  <g id="patch_1">
   <path d="M 0 1440 
L 1440 1440 
L 1440 0 
L 0 0 
z
" style="fill: #ffffff"/>
  </g>
  <g id="axes_1">
   <g id="matplotlib.axis_1"/>
   <g id="matplotlib.axis_2"/>
   <g id="patch_2">
    <path d="M 718.846301 1001.514515 
C 756.478462 1004.142147 794.251866 998.997959 829.810904 986.402773 
C 865.369939 973.807588 897.959695 954.028794 925.547809 928.299824 
C 953.135924 902.570853 975.136789 871.437828 990.178216 836.842457 
C 1005.219644 802.247086 1012.9824 764.923737 1012.9824 727.199952 
L 835.5744 727.199983 
C 835.5744 740.585842 832.819874 753.829611 827.482593 766.105388 
C 822.145312 778.381165 814.338554 789.428367 804.549223 798.558002 
C 794.759892 807.687637 783.195785 814.705918 770.578063 819.175178 
C 757.960339 823.644437 744.556874 825.469794 731.203526 824.537408 
z
" style="fill: #ff7f0e; stroke: #ffffff; stroke-linejoin: miter"/>
   </g>
   <g id="patch_3">
    <path d="M 1190.3904 727.2 
C 1190.3904 639.078069 1164.642258 552.847104 1116.324658 479.15257 
C 1068.007057 405.458037 999.193647 347.462686 918.379644 312.326214 
C 837.565641 277.189742 748.219343 266.420103 661.370812 281.346839 
C 574.522281 296.273575 493.898799 336.256075 429.453572 396.358383 
C 365.008344 456.460691 319.50717 534.103393 298.567301 619.701271 
C 277.627432 705.299148 282.147546 795.178593 311.569622 878.243726 
C 340.991699 961.308858 394.053028 1033.994767 464.203035 1087.328166 
C 534.353041 1140.661564 618.581093 1172.353539 706.488992 1178.491625 
L 718.84625 1001.514517 
C 665.412037 997.783524 614.214594 978.519774 571.574394 946.101434 
C 528.934194 913.683094 496.681229 869.501463 478.797221 819.010892 
C 460.913214 768.520321 458.165694 713.887718 470.893849 661.857635 
C 483.622005 609.827552 511.279582 562.632969 550.452171 526.100193 
C 589.62476 489.567418 638.63119 465.26433 691.421474 456.191216 
C 744.211757 447.118102 798.520291 453.664353 847.642529 475.021817 
C 896.764766 496.37928 938.592525 531.631356 967.962047 576.426072 
C 997.331569 621.220789 1012.9824 673.635689 1012.9824 727.2 
z
" style="fill: #2ca02c; stroke: #ffffff; stroke-linejoin: miter"/>
   </g>
   <g id="patch_4">
    <path d="M 706.489076 1178.491621 
C 736.376426 1180.57849 766.397305 1179.691194 796.109233 1175.842837 
C 825.821161 1171.994481 855.077449 1165.204047 883.446899 1155.571656 
L 826.408899 987.582771 
C 809.164724 993.437754 791.38149 997.565273 773.321298 999.90447 
C 755.261107 1002.243667 737.013122 1002.783004 718.846301 1001.514515 
z
" style="fill: #d62728; stroke: #ffffff; stroke-linejoin: miter"/>
   </g>
   <g id="patch_5">
    <path d="M 897.799164 1197.537266 
C 898.114676 1197.430136 898.430081 1197.322655 898.745364 1197.214824 
C 899.060647 1197.106992 899.375809 1196.998837 899.69085 1196.890305 
L 841.911012 1029.15513 
C 841.719517 1029.221101 841.527948 1029.286842 841.336305 1029.352387 
C 841.144663 1029.417931 840.952946 1029.483263 840.761164 1029.548381 
z
" style="fill: #9467bd; stroke: #ffffff; stroke-linejoin: miter"/>
   </g>
   <g id="patch_6">
    <path d="M 914.45303 1238.714603 
C 914.834903 1238.58307 915.216586 1238.450998 915.598108 1238.31844 
C 915.97963 1238.185882 916.360976 1238.052785 916.742134 1237.919202 
L 858.064609 1070.49595 
C 857.832925 1070.577147 857.601126 1070.658049 857.369221 1070.738623 
C 857.137315 1070.819198 856.905312 1070.899477 856.673193 1070.979429 
z
" style="fill: #8c564b; stroke: #ffffff; stroke-linejoin: miter"/>
   </g>
   <g id="patch_7">
    <path d="M 887.627688 1154.129294 
C 904.062849 1148.369204 920.151704 1141.664868 935.813872 1134.049777 
C 951.47604 1126.434687 966.685432 1117.921568 981.366076 1108.55289 
L 885.928399 959.002737 
C 877.00487 964.697423 867.759946 969.872064 858.239805 974.500845 
C 848.719663 979.129626 838.940163 983.20481 828.950163 986.706042 
z
" style="fill: #e377c2; stroke: #ffffff; stroke-linejoin: miter"/>
   </g>
   <g id="patch_8">
    <path d="M 981.366076 1108.55289 
C 997.786069 1098.074216 1013.512076 1086.546053 1028.446052 1074.040264 
C 1043.380028 1061.534474 1057.490802 1048.077132 1070.690094 1033.75242 
L 940.22339 913.535785 
C 932.200292 922.242962 923.623154 930.422916 914.545639 938.024474 
C 905.468124 945.626032 895.909179 952.633347 885.928399 959.002737 
z
" style="fill: #7f7f7f; stroke: #ffffff; stroke-linejoin: miter"/>
   </g>
   <g id="patch_9">
    <path d="M 1070.690094 1033.75242 
C 1071.924424 1032.412847 1073.150719 1031.065751 1074.368789 1029.711348 
C 1075.58686 1028.356945 1076.796652 1026.995315 1077.998274 1025.626297 
L 944.665618 908.596376 
C 943.93522 909.428525 943.199856 910.256182 942.45946 911.079447 
C 941.719064 911.902712 940.973669 912.721535 940.22339 913.535785 
z
" style="fill: #bcbd22; stroke: #ffffff; stroke-linejoin: miter"/>
   </g>
   <g id="patch_10">
    <path d="M 1077.998274 1025.626297 
C 1113.924599 984.695294 1142.166156 937.611112 1161.361019 886.644396 
C 1180.555882 835.677679 1190.390454 781.661149 1190.3904 727.199705 
L 1012.9824 727.199821 
C 1012.982433 760.303836 1007.004556 793.137413 995.33709 824.117182 
C 983.669624 855.09695 966.503187 883.716748 944.665618 908.596376 
z
" style="fill: #17becf; stroke: #ffffff; stroke-linejoin: miter"/>
   </g>
   <g id="text_1">
    <!-- VEHICLE RELATED CRIMES -->
    <g style="fill: #262626" transform="translate(813.019165 812.810204) scale(0.2 -0.2)">
     <defs>
      <path id="ArialMT-56" d="M 1803 0 
L 28 4581 
L 684 4581 
L 1875 1253 
Q 2019 853 2116 503 
Q 2222 878 2363 1253 
L 3600 4581 
L 4219 4581 
L 2425 0 
L 1803 0 
z
" transform="scale(0.015625)"/>
      <path id="ArialMT-45" d="M 506 0 
L 506 4581 
L 3819 4581 
L 3819 4041 
L 1113 4041 
L 1113 2638 
L 3647 2638 
L 3647 2100 
L 1113 2100 
L 1113 541 
L 3925 541 
L 3925 0 
L 506 0 
z
" transform="scale(0.015625)"/>
      <path id="ArialMT-48" d="M 513 0 
L 513 4581 
L 1119 4581 
L 1119 2700 
L 3500 2700 
L 3500 4581 
L 4106 4581 
L 4106 0 
L 3500 0 
L 3500 2159 
L 1119 2159 
L 1119 0 
L 513 0 
z
" transform="scale(0.015625)"/>
      <path id="ArialMT-49" d="M 597 0 
L 597 4581 
L 1203 4581 
L 1203 0 
L 597 0 
z
" transform="scale(0.015625)"/>
      <path id="ArialMT-43" d="M 3763 1606 
L 4369 1453 
Q 4178 706 3683 314 
Q 3188 -78 2472 -78 
Q 1731 -78 1267 223 
Q 803 525 561 1097 
Q 319 1669 319 2325 
Q 319 3041 592 3573 
Q 866 4106 1370 4382 
Q 1875 4659 2481 4659 
Q 3169 4659 3637 4309 
Q 4106 3959 4291 3325 
L 3694 3184 
Q 3534 3684 3231 3912 
Q 2928 4141 2469 4141 
Q 1941 4141 1586 3887 
Q 1231 3634 1087 3207 
Q 944 2781 944 2328 
Q 944 1744 1114 1308 
Q 1284 872 1643 656 
Q 2003 441 2422 441 
Q 2931 441 3284 734 
Q 3638 1028 3763 1606 
z
" transform="scale(0.015625)"/>
      <path id="ArialMT-4c" d="M 469 0 
L 469 4581 
L 1075 4581 
L 1075 541 
L 3331 541 
L 3331 0 
L 469 0 
z
" transform="scale(0.015625)"/>
      <path id="ArialMT-20" transform="scale(0.015625)"/>
      <path id="ArialMT-52" d="M 503 0 
L 503 4581 
L 2534 4581 
Q 3147 4581 3465 4457 
Q 3784 4334 3975 4021 
Q 4166 3709 4166 3331 
Q 4166 2844 3850 2509 
Q 3534 2175 2875 2084 
Q 3116 1969 3241 1856 
Q 3506 1613 3744 1247 
L 4541 0 
L 3778 0 
L 3172 953 
Q 2906 1366 2734 1584 
Q 2563 1803 2427 1890 
Q 2291 1978 2150 2013 
Q 2047 2034 1813 2034 
L 1109 2034 
L 1109 0 
L 503 0 
z
M 1109 2559 
L 2413 2559 
Q 2828 2559 3062 2645 
Q 3297 2731 3419 2920 
Q 3541 3109 3541 3331 
Q 3541 3656 3305 3865 
Q 3069 4075 2559 4075 
L 1109 4075 
L 1109 2559 
z
" transform="scale(0.015625)"/>
      <path id="ArialMT-41" d="M -9 0 
L 1750 4581 
L 2403 4581 
L 4278 0 
L 3588 0 
L 3053 1388 
L 1138 1388 
L 634 0 
L -9 0 
z
M 1313 1881 
L 2866 1881 
L 2388 3150 
Q 2169 3728 2063 4100 
Q 1975 3659 1816 3225 
L 1313 1881 
z
" transform="scale(0.015625)"/>
      <path id="ArialMT-54" d="M 1659 0 
L 1659 4041 
L 150 4041 
L 150 4581 
L 3781 4581 
L 3781 4041 
L 2266 4041 
L 2266 0 
L 1659 0 
z
" transform="scale(0.015625)"/>
      <path id="ArialMT-44" d="M 494 0 
L 494 4581 
L 2072 4581 
Q 2606 4581 2888 4516 
Q 3281 4425 3559 4188 
Q 3922 3881 4101 3404 
Q 4281 2928 4281 2316 
Q 4281 1794 4159 1391 
Q 4038 988 3847 723 
Q 3656 459 3429 307 
Q 3203 156 2883 78 
Q 2563 0 2147 0 
L 494 0 
z
M 1100 541 
L 2078 541 
Q 2531 541 2789 625 
Q 3047 709 3200 863 
Q 3416 1078 3536 1442 
Q 3656 1806 3656 2325 
Q 3656 3044 3420 3430 
Q 3184 3816 2847 3947 
Q 2603 4041 2063 4041 
L 1100 4041 
L 1100 541 
z
" transform="scale(0.015625)"/>
      <path id="ArialMT-4d" d="M 475 0 
L 475 4581 
L 1388 4581 
L 2472 1338 
Q 2622 884 2691 659 
Q 2769 909 2934 1394 
L 4031 4581 
L 4847 4581 
L 4847 0 
L 4263 0 
L 4263 3834 
L 2931 0 
L 2384 0 
L 1059 3900 
L 1059 0 
L 475 0 
z
" transform="scale(0.015625)"/>
      <path id="ArialMT-53" d="M 288 1472 
L 859 1522 
Q 900 1178 1048 958 
Q 1197 738 1509 602 
Q 1822 466 2213 466 
Q 2559 466 2825 569 
Q 3091 672 3220 851 
Q 3350 1031 3350 1244 
Q 3350 1459 3225 1620 
Q 3100 1781 2813 1891 
Q 2628 1963 1997 2114 
Q 1366 2266 1113 2400 
Q 784 2572 623 2826 
Q 463 3081 463 3397 
Q 463 3744 659 4045 
Q 856 4347 1234 4503 
Q 1613 4659 2075 4659 
Q 2584 4659 2973 4495 
Q 3363 4331 3572 4012 
Q 3781 3694 3797 3291 
L 3216 3247 
Q 3169 3681 2898 3903 
Q 2628 4125 2100 4125 
Q 1550 4125 1298 3923 
Q 1047 3722 1047 3438 
Q 1047 3191 1225 3031 
Q 1400 2872 2139 2705 
Q 2878 2538 3153 2413 
Q 3553 2228 3743 1945 
Q 3934 1663 3934 1294 
Q 3934 928 3725 604 
Q 3516 281 3123 101 
Q 2731 -78 2241 -78 
Q 1619 -78 1198 103 
Q 778 284 539 648 
Q 300 1013 288 1472 
z
" transform="scale(0.015625)"/>
     </defs>
     <use xlink:href="#ArialMT-56"/>
     <use xlink:href="#ArialMT-45" transform="translate(66.699219 0)"/>
     <use xlink:href="#ArialMT-48" transform="translate(133.398438 0)"/>
     <use xlink:href="#ArialMT-49" transform="translate(205.615234 0)"/>
     <use xlink:href="#ArialMT-43" transform="translate(233.398438 0)"/>
     <use xlink:href="#ArialMT-4c" transform="translate(305.615234 0)"/>
     <use xlink:href="#ArialMT-45" transform="translate(361.230469 0)"/>
     <use xlink:href="#ArialMT-20" transform="translate(427.929688 0)"/>
     <use xlink:href="#ArialMT-52" transform="translate(455.712891 0)"/>
     <use xlink:href="#ArialMT-45" transform="translate(527.929688 0)"/>
     <use xlink:href="#ArialMT-4c" transform="translate(594.628906 0)"/>
     <use xlink:href="#ArialMT-41" transform="translate(650.244141 0)"/>
     <use xlink:href="#ArialMT-54" transform="translate(709.568359 0)"/>
     <use xlink:href="#ArialMT-45" transform="translate(770.652344 0)"/>
     <use xlink:href="#ArialMT-44" transform="translate(837.351562 0)"/>
     <use xlink:href="#ArialMT-20" transform="translate(909.568359 0)"/>
     <use xlink:href="#ArialMT-43" transform="translate(937.351562 0)"/>
     <use xlink:href="#ArialMT-52" transform="translate(1009.568359 0)"/>
     <use xlink:href="#ArialMT-49" transform="translate(1081.785156 0)"/>
     <use xlink:href="#ArialMT-4d" transform="translate(1109.568359 0)"/>
     <use xlink:href="#ArialMT-45" transform="translate(1192.869141 0)"/>
     <use xlink:href="#ArialMT-53" transform="translate(1259.568359 0)"/>
    </g>
   </g>
   <g id="text_2">
    <!-- 26.1% -->
    <g style="fill: #262626" transform="translate(803.420832 832.920177) scale(0.2 -0.2)">
     <defs>
      <path id="ArialMT-32" d="M 3222 541 
L 3222 0 
L 194 0 
Q 188 203 259 391 
Q 375 700 629 1000 
Q 884 1300 1366 1694 
Q 2113 2306 2375 2664 
Q 2638 3022 2638 3341 
Q 2638 3675 2398 3904 
Q 2159 4134 1775 4134 
Q 1369 4134 1125 3890 
Q 881 3647 878 3216 
L 300 3275 
Q 359 3922 746 4261 
Q 1134 4600 1788 4600 
Q 2447 4600 2831 4234 
Q 3216 3869 3216 3328 
Q 3216 3053 3103 2787 
Q 2991 2522 2730 2228 
Q 2469 1934 1863 1422 
Q 1356 997 1212 845 
Q 1069 694 975 541 
L 3222 541 
z
" transform="scale(0.015625)"/>
      <path id="ArialMT-36" d="M 3184 3459 
L 2625 3416 
Q 2550 3747 2413 3897 
Q 2184 4138 1850 4138 
Q 1581 4138 1378 3988 
Q 1113 3794 959 3422 
Q 806 3050 800 2363 
Q 1003 2672 1297 2822 
Q 1591 2972 1913 2972 
Q 2475 2972 2870 2558 
Q 3266 2144 3266 1488 
Q 3266 1056 3080 686 
Q 2894 316 2569 119 
Q 2244 -78 1831 -78 
Q 1128 -78 684 439 
Q 241 956 241 2144 
Q 241 3472 731 4075 
Q 1159 4600 1884 4600 
Q 2425 4600 2770 4297 
Q 3116 3994 3184 3459 
z
M 888 1484 
Q 888 1194 1011 928 
Q 1134 663 1356 523 
Q 1578 384 1822 384 
Q 2178 384 2434 671 
Q 2691 959 2691 1453 
Q 2691 1928 2437 2201 
Q 2184 2475 1800 2475 
Q 1419 2475 1153 2201 
Q 888 1928 888 1484 
z
" transform="scale(0.015625)"/>
      <path id="ArialMT-2e" d="M 581 0 
L 581 641 
L 1222 641 
L 1222 0 
L 581 0 
z
" transform="scale(0.015625)"/>
      <path id="ArialMT-31" d="M 2384 0 
L 1822 0 
L 1822 3584 
Q 1619 3391 1289 3197 
Q 959 3003 697 2906 
L 697 3450 
Q 1169 3672 1522 3987 
Q 1875 4303 2022 4600 
L 2384 4600 
L 2384 0 
z
" transform="scale(0.015625)"/>
      <path id="ArialMT-25" d="M 372 3481 
Q 372 3972 619 4315 
Q 866 4659 1334 4659 
Q 1766 4659 2048 4351 
Q 2331 4044 2331 3447 
Q 2331 2866 2045 2552 
Q 1759 2238 1341 2238 
Q 925 2238 648 2547 
Q 372 2856 372 3481 
z
M 1350 4272 
Q 1141 4272 1002 4090 
Q 863 3909 863 3425 
Q 863 2984 1003 2804 
Q 1144 2625 1350 2625 
Q 1563 2625 1702 2806 
Q 1841 2988 1841 3469 
Q 1841 3913 1700 4092 
Q 1559 4272 1350 4272 
z
M 1353 -169 
L 3859 4659 
L 4316 4659 
L 1819 -169 
L 1353 -169 
z
M 3334 1075 
Q 3334 1569 3581 1911 
Q 3828 2253 4300 2253 
Q 4731 2253 5014 1945 
Q 5297 1638 5297 1041 
Q 5297 459 5011 145 
Q 4725 -169 4303 -169 
Q 3888 -169 3611 142 
Q 3334 453 3334 1075 
z
M 4316 1866 
Q 4103 1866 3964 1684 
Q 3825 1503 3825 1019 
Q 3825 581 3965 400 
Q 4106 219 4313 219 
Q 4528 219 4667 400 
Q 4806 581 4806 1063 
Q 4806 1506 4665 1686 
Q 4525 1866 4316 1866 
z
" transform="scale(0.015625)"/>
     </defs>
     <use xlink:href="#ArialMT-32"/>
     <use xlink:href="#ArialMT-36" transform="translate(55.615234 0)"/>
     <use xlink:href="#ArialMT-2e" transform="translate(111.230469 0)"/>
     <use xlink:href="#ArialMT-31" transform="translate(139.013672 0)"/>
     <use xlink:href="#ArialMT-25" transform="translate(194.628906 0)"/>
    </g>
   </g>
   <g id="text_3">
    <!-- 73.89% -->
    <g style="fill: #262626" transform="translate(380.112156 384.986644) scale(0.2 -0.2)">
     <defs>
      <path id="ArialMT-37" d="M 303 3981 
L 303 4522 
L 3269 4522 
L 3269 4084 
Q 2831 3619 2401 2847 
Q 1972 2075 1738 1259 
Q 1569 684 1522 0 
L 944 0 
Q 953 541 1156 1306 
Q 1359 2072 1739 2783 
Q 2119 3494 2547 3981 
L 303 3981 
z
" transform="scale(0.015625)"/>
      <path id="ArialMT-33" d="M 269 1209 
L 831 1284 
Q 928 806 1161 595 
Q 1394 384 1728 384 
Q 2125 384 2398 659 
Q 2672 934 2672 1341 
Q 2672 1728 2419 1979 
Q 2166 2231 1775 2231 
Q 1616 2231 1378 2169 
L 1441 2663 
Q 1497 2656 1531 2656 
Q 1891 2656 2178 2843 
Q 2466 3031 2466 3422 
Q 2466 3731 2256 3934 
Q 2047 4138 1716 4138 
Q 1388 4138 1169 3931 
Q 950 3725 888 3313 
L 325 3413 
Q 428 3978 793 4289 
Q 1159 4600 1703 4600 
Q 2078 4600 2393 4439 
Q 2709 4278 2876 4000 
Q 3044 3722 3044 3409 
Q 3044 3113 2884 2869 
Q 2725 2625 2413 2481 
Q 2819 2388 3044 2092 
Q 3269 1797 3269 1353 
Q 3269 753 2831 336 
Q 2394 -81 1725 -81 
Q 1122 -81 723 278 
Q 325 638 269 1209 
z
" transform="scale(0.015625)"/>
      <path id="ArialMT-38" d="M 1131 2484 
Q 781 2613 612 2850 
Q 444 3088 444 3419 
Q 444 3919 803 4259 
Q 1163 4600 1759 4600 
Q 2359 4600 2725 4251 
Q 3091 3903 3091 3403 
Q 3091 3084 2923 2848 
Q 2756 2613 2416 2484 
Q 2838 2347 3058 2040 
Q 3278 1734 3278 1309 
Q 3278 722 2862 322 
Q 2447 -78 1769 -78 
Q 1091 -78 675 323 
Q 259 725 259 1325 
Q 259 1772 486 2073 
Q 713 2375 1131 2484 
z
M 1019 3438 
Q 1019 3113 1228 2906 
Q 1438 2700 1772 2700 
Q 2097 2700 2305 2904 
Q 2513 3109 2513 3406 
Q 2513 3716 2298 3927 
Q 2084 4138 1766 4138 
Q 1444 4138 1231 3931 
Q 1019 3725 1019 3438 
z
M 838 1322 
Q 838 1081 952 856 
Q 1066 631 1291 507 
Q 1516 384 1775 384 
Q 2178 384 2440 643 
Q 2703 903 2703 1303 
Q 2703 1709 2433 1975 
Q 2163 2241 1756 2241 
Q 1359 2241 1098 1978 
Q 838 1716 838 1322 
z
" transform="scale(0.015625)"/>
      <path id="ArialMT-39" d="M 350 1059 
L 891 1109 
Q 959 728 1153 556 
Q 1347 384 1650 384 
Q 1909 384 2104 503 
Q 2300 622 2425 820 
Q 2550 1019 2634 1356 
Q 2719 1694 2719 2044 
Q 2719 2081 2716 2156 
Q 2547 1888 2255 1720 
Q 1963 1553 1622 1553 
Q 1053 1553 659 1965 
Q 266 2378 266 3053 
Q 266 3750 677 4175 
Q 1088 4600 1706 4600 
Q 2153 4600 2523 4359 
Q 2894 4119 3086 3673 
Q 3278 3228 3278 2384 
Q 3278 1506 3087 986 
Q 2897 466 2520 194 
Q 2144 -78 1638 -78 
Q 1100 -78 759 220 
Q 419 519 350 1059 
z
M 2653 3081 
Q 2653 3566 2395 3850 
Q 2138 4134 1775 4134 
Q 1400 4134 1122 3828 
Q 844 3522 844 3034 
Q 844 2597 1108 2323 
Q 1372 2050 1759 2050 
Q 2150 2050 2401 2323 
Q 2653 2597 2653 3081 
z
" transform="scale(0.015625)"/>
     </defs>
     <use xlink:href="#ArialMT-37"/>
     <use xlink:href="#ArialMT-33" transform="translate(55.615234 0)"/>
     <use xlink:href="#ArialMT-2e" transform="translate(111.230469 0)"/>
     <use xlink:href="#ArialMT-38" transform="translate(139.013672 0)"/>
     <use xlink:href="#ArialMT-39" transform="translate(194.628906 0)"/>
     <use xlink:href="#ArialMT-25" transform="translate(250.244141 0)"/>
    </g>
   </g>
   <g id="text_4">
    <!-- 6.32% -->
    <g style="fill: #262626" transform="translate(770.661569 1203.445287) scale(0.2 -0.2)">
     <use xlink:href="#ArialMT-36"/>
     <use xlink:href="#ArialMT-2e" transform="translate(55.615234 0)"/>
     <use xlink:href="#ArialMT-33" transform="translate(83.398438 0)"/>
     <use xlink:href="#ArialMT-32" transform="translate(139.013672 0)"/>
     <use xlink:href="#ArialMT-25" transform="translate(194.628906 0)"/>
    </g>
   </g>
   <g id="text_5">
    <!-- 0.07% -->
    <g style="fill: #262626" transform="translate(877.711894 1223.787603) scale(0.2 -0.2)">
     <defs>
      <path id="ArialMT-30" d="M 266 2259 
Q 266 3072 433 3567 
Q 600 4063 929 4331 
Q 1259 4600 1759 4600 
Q 2128 4600 2406 4451 
Q 2684 4303 2865 4023 
Q 3047 3744 3150 3342 
Q 3253 2941 3253 2259 
Q 3253 1453 3087 958 
Q 2922 463 2592 192 
Q 2263 -78 1759 -78 
Q 1097 -78 719 397 
Q 266 969 266 2259 
z
M 844 2259 
Q 844 1131 1108 757 
Q 1372 384 1759 384 
Q 2147 384 2411 759 
Q 2675 1134 2675 2259 
Q 2675 3391 2411 3762 
Q 2147 4134 1753 4134 
Q 1366 4134 1134 3806 
Q 844 3388 844 2259 
z
" transform="scale(0.015625)"/>
     </defs>
     <use xlink:href="#ArialMT-30"/>
     <use xlink:href="#ArialMT-2e" transform="translate(55.615234 0)"/>
     <use xlink:href="#ArialMT-30" transform="translate(83.398438 0)"/>
     <use xlink:href="#ArialMT-37" transform="translate(139.013672 0)"/>
     <use xlink:href="#ArialMT-25" transform="translate(194.628906 0)"/>
    </g>
   </g>
   <g id="text_6">
    <!-- 0.09% -->
    <g style="fill: #262626" transform="translate(894.669176 1264.855178) scale(0.2 -0.2)">
     <use xlink:href="#ArialMT-30"/>
     <use xlink:href="#ArialMT-2e" transform="translate(55.615234 0)"/>
     <use xlink:href="#ArialMT-30" transform="translate(83.398438 0)"/>
     <use xlink:href="#ArialMT-39" transform="translate(139.013672 0)"/>
     <use xlink:href="#ArialMT-25" transform="translate(194.628906 0)"/>
    </g>
   </g>
   <g id="text_7">
    <!-- 3.68% -->
    <g style="fill: #262626" transform="translate(917.351442 1159.562584) scale(0.2 -0.2)">
     <use xlink:href="#ArialMT-33"/>
     <use xlink:href="#ArialMT-2e" transform="translate(55.615234 0)"/>
     <use xlink:href="#ArialMT-36" transform="translate(83.398438 0)"/>
     <use xlink:href="#ArialMT-38" transform="translate(139.013672 0)"/>
     <use xlink:href="#ArialMT-25" transform="translate(194.628906 0)"/>
    </g>
   </g>
   <g id="text_8">
    <!-- 4.11% -->
    <g style="fill: #262626" transform="translate(1015.352899 1096.552442) scale(0.2 -0.2)">
     <defs>
      <path id="ArialMT-34" d="M 2069 0 
L 2069 1097 
L 81 1097 
L 81 1613 
L 2172 4581 
L 2631 4581 
L 2631 1613 
L 3250 1613 
L 3250 1097 
L 2631 1097 
L 2631 0 
L 2069 0 
z
M 2069 1613 
L 2069 3678 
L 634 1613 
L 2069 1613 
z
" transform="scale(0.015625)"/>
     </defs>
     <use xlink:href="#ArialMT-34"/>
     <use xlink:href="#ArialMT-2e" transform="translate(55.615234 0)"/>
     <use xlink:href="#ArialMT-31" transform="translate(83.398438 0)"/>
     <use xlink:href="#ArialMT-31" transform="translate(131.638672 0)"/>
     <use xlink:href="#ArialMT-25" transform="translate(187.253906 0)"/>
    </g>
   </g>
   <g id="text_9">
    <!-- 0.38% -->
    <g style="fill: #262626" transform="translate(1062.834257 1050.007051) scale(0.2 -0.2)">
     <use xlink:href="#ArialMT-30"/>
     <use xlink:href="#ArialMT-2e" transform="translate(55.615234 0)"/>
     <use xlink:href="#ArialMT-33" transform="translate(83.398438 0)"/>
     <use xlink:href="#ArialMT-38" transform="translate(139.013672 0)"/>
     <use xlink:href="#ArialMT-25" transform="translate(194.628906 0)"/>
    </g>
   </g>
   <g id="text_10">
    <!-- 11.47% -->
    <g style="fill: #262626" transform="translate(1149.352594 899.78672) scale(0.2 -0.2)">
     <use xlink:href="#ArialMT-31"/>
     <use xlink:href="#ArialMT-31" transform="translate(48.240234 0)"/>
     <use xlink:href="#ArialMT-2e" transform="translate(103.855469 0)"/>
     <use xlink:href="#ArialMT-34" transform="translate(131.638672 0)"/>
     <use xlink:href="#ArialMT-37" transform="translate(187.253906 0)"/>
     <use xlink:href="#ArialMT-25" transform="translate(242.869141 0)"/>
    </g>
   </g>
   <g id="text_11">
    <!-- Vehicle Related Crimes -->
    <g style="fill: #262626" transform="translate(600.4375 166.8) scale(0.25 -0.25)">
     <defs>
      <path id="Arial-BoldMT-56" d="M 1634 0 
L -3 4581 
L 1000 4581 
L 2159 1191 
L 3281 4581 
L 4263 4581 
L 2622 0 
L 1634 0 
z
" transform="scale(0.015625)"/>
      <path id="Arial-BoldMT-65" d="M 2381 1056 
L 3256 909 
Q 3088 428 2723 176 
Q 2359 -75 1813 -75 
Q 947 -75 531 491 
Q 203 944 203 1634 
Q 203 2459 634 2926 
Q 1066 3394 1725 3394 
Q 2466 3394 2894 2905 
Q 3322 2416 3303 1406 
L 1103 1406 
Q 1113 1016 1316 798 
Q 1519 581 1822 581 
Q 2028 581 2168 693 
Q 2309 806 2381 1056 
z
M 2431 1944 
Q 2422 2325 2234 2523 
Q 2047 2722 1778 2722 
Q 1491 2722 1303 2513 
Q 1116 2303 1119 1944 
L 2431 1944 
z
" transform="scale(0.015625)"/>
      <path id="Arial-BoldMT-68" d="M 1334 4581 
L 1334 2897 
Q 1759 3394 2350 3394 
Q 2653 3394 2897 3281 
Q 3141 3169 3264 2994 
Q 3388 2819 3433 2606 
Q 3478 2394 3478 1947 
L 3478 0 
L 2600 0 
L 2600 1753 
Q 2600 2275 2550 2415 
Q 2500 2556 2373 2639 
Q 2247 2722 2056 2722 
Q 1838 2722 1666 2615 
Q 1494 2509 1414 2295 
Q 1334 2081 1334 1663 
L 1334 0 
L 456 0 
L 456 4581 
L 1334 4581 
z
" transform="scale(0.015625)"/>
      <path id="Arial-BoldMT-69" d="M 459 3769 
L 459 4581 
L 1338 4581 
L 1338 3769 
L 459 3769 
z
M 459 0 
L 459 3319 
L 1338 3319 
L 1338 0 
L 459 0 
z
" transform="scale(0.015625)"/>
      <path id="Arial-BoldMT-63" d="M 3353 2338 
L 2488 2181 
Q 2444 2441 2289 2572 
Q 2134 2703 1888 2703 
Q 1559 2703 1364 2476 
Q 1169 2250 1169 1719 
Q 1169 1128 1367 884 
Q 1566 641 1900 641 
Q 2150 641 2309 783 
Q 2469 925 2534 1272 
L 3397 1125 
Q 3263 531 2881 228 
Q 2500 -75 1859 -75 
Q 1131 -75 698 384 
Q 266 844 266 1656 
Q 266 2478 700 2936 
Q 1134 3394 1875 3394 
Q 2481 3394 2839 3133 
Q 3197 2872 3353 2338 
z
" transform="scale(0.015625)"/>
      <path id="Arial-BoldMT-6c" d="M 459 0 
L 459 4581 
L 1338 4581 
L 1338 0 
L 459 0 
z
" transform="scale(0.015625)"/>
      <path id="Arial-BoldMT-20" transform="scale(0.015625)"/>
      <path id="Arial-BoldMT-52" d="M 469 0 
L 469 4581 
L 2416 4581 
Q 3150 4581 3483 4457 
Q 3816 4334 4016 4018 
Q 4216 3703 4216 3297 
Q 4216 2781 3912 2445 
Q 3609 2109 3006 2022 
Q 3306 1847 3501 1637 
Q 3697 1428 4028 894 
L 4588 0 
L 3481 0 
L 2813 997 
Q 2456 1531 2325 1670 
Q 2194 1809 2047 1861 
Q 1900 1913 1581 1913 
L 1394 1913 
L 1394 0 
L 469 0 
z
M 1394 2644 
L 2078 2644 
Q 2744 2644 2909 2700 
Q 3075 2756 3169 2893 
Q 3263 3031 3263 3238 
Q 3263 3469 3139 3611 
Q 3016 3753 2791 3791 
Q 2678 3806 2116 3806 
L 1394 3806 
L 1394 2644 
z
" transform="scale(0.015625)"/>
      <path id="Arial-BoldMT-61" d="M 1116 2306 
L 319 2450 
Q 453 2931 781 3162 
Q 1109 3394 1756 3394 
Q 2344 3394 2631 3255 
Q 2919 3116 3036 2902 
Q 3153 2688 3153 2116 
L 3144 1091 
Q 3144 653 3186 445 
Q 3228 238 3344 0 
L 2475 0 
Q 2441 88 2391 259 
Q 2369 338 2359 363 
Q 2134 144 1878 34 
Q 1622 -75 1331 -75 
Q 819 -75 523 203 
Q 228 481 228 906 
Q 228 1188 362 1408 
Q 497 1628 739 1745 
Q 981 1863 1438 1950 
Q 2053 2066 2291 2166 
L 2291 2253 
Q 2291 2506 2166 2614 
Q 2041 2722 1694 2722 
Q 1459 2722 1328 2630 
Q 1197 2538 1116 2306 
z
M 2291 1594 
Q 2122 1538 1756 1459 
Q 1391 1381 1278 1306 
Q 1106 1184 1106 997 
Q 1106 813 1243 678 
Q 1381 544 1594 544 
Q 1831 544 2047 700 
Q 2206 819 2256 991 
Q 2291 1103 2291 1419 
L 2291 1594 
z
" transform="scale(0.015625)"/>
      <path id="Arial-BoldMT-74" d="M 1981 3319 
L 1981 2619 
L 1381 2619 
L 1381 1281 
Q 1381 875 1398 808 
Q 1416 741 1477 697 
Q 1538 653 1625 653 
Q 1747 653 1978 738 
L 2053 56 
Q 1747 -75 1359 -75 
Q 1122 -75 931 4 
Q 741 84 652 211 
Q 563 338 528 553 
Q 500 706 500 1172 
L 500 2619 
L 97 2619 
L 97 3319 
L 500 3319 
L 500 3978 
L 1381 4491 
L 1381 3319 
L 1981 3319 
z
" transform="scale(0.015625)"/>
      <path id="Arial-BoldMT-64" d="M 3503 0 
L 2688 0 
L 2688 488 
Q 2484 203 2207 64 
Q 1931 -75 1650 -75 
Q 1078 -75 670 386 
Q 263 847 263 1672 
Q 263 2516 659 2955 
Q 1056 3394 1663 3394 
Q 2219 3394 2625 2931 
L 2625 4581 
L 3503 4581 
L 3503 0 
z
M 1159 1731 
Q 1159 1200 1306 963 
Q 1519 619 1900 619 
Q 2203 619 2415 876 
Q 2628 1134 2628 1647 
Q 2628 2219 2422 2470 
Q 2216 2722 1894 2722 
Q 1581 2722 1370 2473 
Q 1159 2225 1159 1731 
z
" transform="scale(0.015625)"/>
      <path id="Arial-BoldMT-43" d="M 3397 1684 
L 4294 1400 
Q 4088 650 3608 286 
Q 3128 -78 2391 -78 
Q 1478 -78 890 545 
Q 303 1169 303 2250 
Q 303 3394 893 4026 
Q 1484 4659 2447 4659 
Q 3288 4659 3813 4163 
Q 4125 3869 4281 3319 
L 3366 3100 
Q 3284 3456 3026 3662 
Q 2769 3869 2400 3869 
Q 1891 3869 1573 3503 
Q 1256 3138 1256 2319 
Q 1256 1450 1568 1081 
Q 1881 713 2381 713 
Q 2750 713 3015 947 
Q 3281 1181 3397 1684 
z
" transform="scale(0.015625)"/>
      <path id="Arial-BoldMT-72" d="M 1300 0 
L 422 0 
L 422 3319 
L 1238 3319 
L 1238 2847 
Q 1447 3181 1614 3287 
Q 1781 3394 1994 3394 
Q 2294 3394 2572 3228 
L 2300 2463 
Q 2078 2606 1888 2606 
Q 1703 2606 1575 2504 
Q 1447 2403 1373 2137 
Q 1300 1872 1300 1025 
L 1300 0 
z
" transform="scale(0.015625)"/>
      <path id="Arial-BoldMT-6d" d="M 394 3319 
L 1203 3319 
L 1203 2866 
Q 1638 3394 2238 3394 
Q 2556 3394 2790 3262 
Q 3025 3131 3175 2866 
Q 3394 3131 3647 3262 
Q 3900 3394 4188 3394 
Q 4553 3394 4806 3245 
Q 5059 3097 5184 2809 
Q 5275 2597 5275 2122 
L 5275 0 
L 4397 0 
L 4397 1897 
Q 4397 2391 4306 2534 
Q 4184 2722 3931 2722 
Q 3747 2722 3584 2609 
Q 3422 2497 3350 2280 
Q 3278 2063 3278 1594 
L 3278 0 
L 2400 0 
L 2400 1819 
Q 2400 2303 2353 2443 
Q 2306 2584 2207 2653 
Q 2109 2722 1941 2722 
Q 1738 2722 1575 2612 
Q 1413 2503 1342 2297 
Q 1272 2091 1272 1613 
L 1272 0 
L 394 0 
L 394 3319 
z
" transform="scale(0.015625)"/>
      <path id="Arial-BoldMT-73" d="M 150 947 
L 1031 1081 
Q 1088 825 1259 692 
Q 1431 559 1741 559 
Q 2081 559 2253 684 
Q 2369 772 2369 919 
Q 2369 1019 2306 1084 
Q 2241 1147 2013 1200 
Q 950 1434 666 1628 
Q 272 1897 272 2375 
Q 272 2806 612 3100 
Q 953 3394 1669 3394 
Q 2350 3394 2681 3172 
Q 3013 2950 3138 2516 
L 2309 2363 
Q 2256 2556 2107 2659 
Q 1959 2763 1684 2763 
Q 1338 2763 1188 2666 
Q 1088 2597 1088 2488 
Q 1088 2394 1175 2328 
Q 1294 2241 1995 2081 
Q 2697 1922 2975 1691 
Q 3250 1456 3250 1038 
Q 3250 581 2869 253 
Q 2488 -75 1741 -75 
Q 1063 -75 667 200 
Q 272 475 150 947 
z
" transform="scale(0.015625)"/>
     </defs>
     <use xlink:href="#Arial-BoldMT-56"/>
     <use xlink:href="#Arial-BoldMT-65" transform="translate(61.199219 0)"/>
     <use xlink:href="#Arial-BoldMT-68" transform="translate(116.814453 0)"/>
     <use xlink:href="#Arial-BoldMT-69" transform="translate(177.898438 0)"/>
     <use xlink:href="#Arial-BoldMT-63" transform="translate(205.681641 0)"/>
     <use xlink:href="#Arial-BoldMT-6c" transform="translate(261.296875 0)"/>
     <use xlink:href="#Arial-BoldMT-65" transform="translate(289.080078 0)"/>
     <use xlink:href="#Arial-BoldMT-20" transform="translate(344.695312 0)"/>
     <use xlink:href="#Arial-BoldMT-52" transform="translate(372.478516 0)"/>
     <use xlink:href="#Arial-BoldMT-65" transform="translate(444.695312 0)"/>
     <use xlink:href="#Arial-BoldMT-6c" transform="translate(500.310547 0)"/>
     <use xlink:href="#Arial-BoldMT-61" transform="translate(528.09375 0)"/>
     <use xlink:href="#Arial-BoldMT-74" transform="translate(583.708984 0)"/>
     <use xlink:href="#Arial-BoldMT-65" transform="translate(617.009766 0)"/>
     <use xlink:href="#Arial-BoldMT-64" transform="translate(672.625 0)"/>
     <use xlink:href="#Arial-BoldMT-20" transform="translate(733.708984 0)"/>
     <use xlink:href="#Arial-BoldMT-43" transform="translate(761.492188 0)"/>
     <use xlink:href="#Arial-BoldMT-72" transform="translate(833.708984 0)"/>
     <use xlink:href="#Arial-BoldMT-69" transform="translate(872.625 0)"/>
     <use xlink:href="#Arial-BoldMT-6d" transform="translate(900.408203 0)"/>
     <use xlink:href="#Arial-BoldMT-65" transform="translate(989.324219 0)"/>
     <use xlink:href="#Arial-BoldMT-73" transform="translate(1044.939453 0)"/>
    </g>
   </g>
   <g id="legend_1">
    <g id="patch_11">
     <path d="M 194.1 356.873437 
L 684.133594 356.873437 
Q 687.133594 356.873437 687.133594 353.873437 
L 687.133594 183.3 
Q 687.133594 180.3 684.133594 180.3 
L 194.1 180.3 
Q 191.1 180.3 191.1 183.3 
L 191.1 353.873437 
Q 191.1 356.873437 194.1 356.873437 
z
" style="fill: #ffffff; opacity: 0.8; stroke: #cccccc; stroke-linejoin: miter"/>
    </g>
    <g id="patch_12">
     <path d="M 197.1 197.036719 
L 227.1 197.036719 
L 227.1 186.536719 
L 197.1 186.536719 
z
" style="fill: #2ca02c; stroke: #ffffff; stroke-linejoin: miter"/>
    </g>
    <g id="text_12">
     <!-- OTHER CRIMES -->
     <g style="fill: #262626" transform="translate(239.1 197.036719) scale(0.15 -0.15)">
      <defs>
       <path id="ArialMT-4f" d="M 309 2231 
Q 309 3372 921 4017 
Q 1534 4663 2503 4663 
Q 3138 4663 3647 4359 
Q 4156 4056 4423 3514 
Q 4691 2972 4691 2284 
Q 4691 1588 4409 1038 
Q 4128 488 3612 205 
Q 3097 -78 2500 -78 
Q 1853 -78 1343 234 
Q 834 547 571 1087 
Q 309 1628 309 2231 
z
M 934 2222 
Q 934 1394 1379 917 
Q 1825 441 2497 441 
Q 3181 441 3623 922 
Q 4066 1403 4066 2288 
Q 4066 2847 3877 3264 
Q 3688 3681 3323 3911 
Q 2959 4141 2506 4141 
Q 1863 4141 1398 3698 
Q 934 3256 934 2222 
z
" transform="scale(0.015625)"/>
      </defs>
      <use xlink:href="#ArialMT-4f"/>
      <use xlink:href="#ArialMT-54" transform="translate(77.783203 0)"/>
      <use xlink:href="#ArialMT-48" transform="translate(138.867188 0)"/>
      <use xlink:href="#ArialMT-45" transform="translate(211.083984 0)"/>
      <use xlink:href="#ArialMT-52" transform="translate(277.783203 0)"/>
      <use xlink:href="#ArialMT-20" transform="translate(350 0)"/>
      <use xlink:href="#ArialMT-43" transform="translate(377.783203 0)"/>
      <use xlink:href="#ArialMT-52" transform="translate(450 0)"/>
      <use xlink:href="#ArialMT-49" transform="translate(522.216797 0)"/>
      <use xlink:href="#ArialMT-4d" transform="translate(550 0)"/>
      <use xlink:href="#ArialMT-45" transform="translate(633.300781 0)"/>
      <use xlink:href="#ArialMT-53" transform="translate(700 0)"/>
     </g>
    </g>
    <g id="patch_13">
     <path d="M 197.1 218.254687 
L 227.1 218.254687 
L 227.1 207.754687 
L 197.1 207.754687 
z
" style="fill: #d62728; stroke: #ffffff; stroke-linejoin: miter"/>
    </g>
    <g id="text_13">
     <!-- BURGLARY FROM VEHICLE -->
     <g style="fill: #262626" transform="translate(239.1 218.254687) scale(0.15 -0.15)">
      <defs>
       <path id="ArialMT-42" d="M 469 0 
L 469 4581 
L 2188 4581 
Q 2713 4581 3030 4442 
Q 3347 4303 3526 4014 
Q 3706 3725 3706 3409 
Q 3706 3116 3547 2856 
Q 3388 2597 3066 2438 
Q 3481 2316 3704 2022 
Q 3928 1728 3928 1328 
Q 3928 1006 3792 729 
Q 3656 453 3456 303 
Q 3256 153 2954 76 
Q 2653 0 2216 0 
L 469 0 
z
M 1075 2656 
L 2066 2656 
Q 2469 2656 2644 2709 
Q 2875 2778 2992 2937 
Q 3109 3097 3109 3338 
Q 3109 3566 3000 3739 
Q 2891 3913 2687 3977 
Q 2484 4041 1991 4041 
L 1075 4041 
L 1075 2656 
z
M 1075 541 
L 2216 541 
Q 2509 541 2628 563 
Q 2838 600 2978 687 
Q 3119 775 3209 942 
Q 3300 1109 3300 1328 
Q 3300 1584 3169 1773 
Q 3038 1963 2805 2039 
Q 2572 2116 2134 2116 
L 1075 2116 
L 1075 541 
z
" transform="scale(0.015625)"/>
       <path id="ArialMT-55" d="M 3500 4581 
L 4106 4581 
L 4106 1934 
Q 4106 1244 3950 837 
Q 3794 431 3386 176 
Q 2978 -78 2316 -78 
Q 1672 -78 1262 144 
Q 853 366 678 786 
Q 503 1206 503 1934 
L 503 4581 
L 1109 4581 
L 1109 1938 
Q 1109 1341 1220 1058 
Q 1331 775 1601 622 
Q 1872 469 2263 469 
Q 2931 469 3215 772 
Q 3500 1075 3500 1938 
L 3500 4581 
z
" transform="scale(0.015625)"/>
       <path id="ArialMT-47" d="M 2638 1797 
L 2638 2334 
L 4578 2338 
L 4578 638 
Q 4131 281 3656 101 
Q 3181 -78 2681 -78 
Q 2006 -78 1454 211 
Q 903 500 622 1047 
Q 341 1594 341 2269 
Q 341 2938 620 3517 
Q 900 4097 1425 4378 
Q 1950 4659 2634 4659 
Q 3131 4659 3532 4498 
Q 3934 4338 4162 4050 
Q 4391 3763 4509 3300 
L 3963 3150 
Q 3859 3500 3706 3700 
Q 3553 3900 3268 4020 
Q 2984 4141 2638 4141 
Q 2222 4141 1919 4014 
Q 1616 3888 1430 3681 
Q 1244 3475 1141 3228 
Q 966 2803 966 2306 
Q 966 1694 1177 1281 
Q 1388 869 1791 669 
Q 2194 469 2647 469 
Q 3041 469 3416 620 
Q 3791 772 3984 944 
L 3984 1797 
L 2638 1797 
z
" transform="scale(0.015625)"/>
       <path id="ArialMT-59" d="M 1784 0 
L 1784 1941 
L 19 4581 
L 756 4581 
L 1659 3200 
Q 1909 2813 2125 2425 
Q 2331 2784 2625 3234 
L 3513 4581 
L 4219 4581 
L 2391 1941 
L 2391 0 
L 1784 0 
z
" transform="scale(0.015625)"/>
       <path id="ArialMT-46" d="M 525 0 
L 525 4581 
L 3616 4581 
L 3616 4041 
L 1131 4041 
L 1131 2622 
L 3281 2622 
L 3281 2081 
L 1131 2081 
L 1131 0 
L 525 0 
z
" transform="scale(0.015625)"/>
      </defs>
      <use xlink:href="#ArialMT-42"/>
      <use xlink:href="#ArialMT-55" transform="translate(66.699219 0)"/>
      <use xlink:href="#ArialMT-52" transform="translate(138.916016 0)"/>
      <use xlink:href="#ArialMT-47" transform="translate(211.132812 0)"/>
      <use xlink:href="#ArialMT-4c" transform="translate(288.916016 0)"/>
      <use xlink:href="#ArialMT-41" transform="translate(344.53125 0)"/>
      <use xlink:href="#ArialMT-52" transform="translate(411.230469 0)"/>
      <use xlink:href="#ArialMT-59" transform="translate(481.697266 0)"/>
      <use xlink:href="#ArialMT-20" transform="translate(546.646484 0)"/>
      <use xlink:href="#ArialMT-46" transform="translate(574.429688 0)"/>
      <use xlink:href="#ArialMT-52" transform="translate(635.513672 0)"/>
      <use xlink:href="#ArialMT-4f" transform="translate(707.730469 0)"/>
      <use xlink:href="#ArialMT-4d" transform="translate(785.513672 0)"/>
      <use xlink:href="#ArialMT-20" transform="translate(868.814453 0)"/>
      <use xlink:href="#ArialMT-56" transform="translate(896.597656 0)"/>
      <use xlink:href="#ArialMT-45" transform="translate(963.296875 0)"/>
      <use xlink:href="#ArialMT-48" transform="translate(1029.996094 0)"/>
      <use xlink:href="#ArialMT-49" transform="translate(1102.212891 0)"/>
      <use xlink:href="#ArialMT-43" transform="translate(1129.996094 0)"/>
      <use xlink:href="#ArialMT-4c" transform="translate(1202.212891 0)"/>
      <use xlink:href="#ArialMT-45" transform="translate(1257.828125 0)"/>
     </g>
    </g>
    <g id="patch_14">
     <path d="M 197.1 239.472656 
L 227.1 239.472656 
L 227.1 228.972656 
L 197.1 228.972656 
z
" style="fill: #9467bd; stroke: #ffffff; stroke-linejoin: miter"/>
    </g>
    <g id="text_14">
     <!-- BURGLARY FROM VEHICLE, ATTEMPTED -->
     <g style="fill: #262626" transform="translate(239.1 239.472656) scale(0.15 -0.15)">
      <defs>
       <path id="ArialMT-2c" d="M 569 0 
L 569 641 
L 1209 641 
L 1209 0 
Q 1209 -353 1084 -570 
Q 959 -788 688 -906 
L 531 -666 
Q 709 -588 793 -436 
Q 878 -284 888 0 
L 569 0 
z
" transform="scale(0.015625)"/>
       <path id="ArialMT-50" d="M 494 0 
L 494 4581 
L 2222 4581 
Q 2678 4581 2919 4538 
Q 3256 4481 3484 4323 
Q 3713 4166 3852 3881 
Q 3991 3597 3991 3256 
Q 3991 2672 3619 2267 
Q 3247 1863 2275 1863 
L 1100 1863 
L 1100 0 
L 494 0 
z
M 1100 2403 
L 2284 2403 
Q 2872 2403 3119 2622 
Q 3366 2841 3366 3238 
Q 3366 3525 3220 3729 
Q 3075 3934 2838 4000 
Q 2684 4041 2272 4041 
L 1100 4041 
L 1100 2403 
z
" transform="scale(0.015625)"/>
      </defs>
      <use xlink:href="#ArialMT-42"/>
      <use xlink:href="#ArialMT-55" transform="translate(66.699219 0)"/>
      <use xlink:href="#ArialMT-52" transform="translate(138.916016 0)"/>
      <use xlink:href="#ArialMT-47" transform="translate(211.132812 0)"/>
      <use xlink:href="#ArialMT-4c" transform="translate(288.916016 0)"/>
      <use xlink:href="#ArialMT-41" transform="translate(344.53125 0)"/>
      <use xlink:href="#ArialMT-52" transform="translate(411.230469 0)"/>
      <use xlink:href="#ArialMT-59" transform="translate(481.697266 0)"/>
      <use xlink:href="#ArialMT-20" transform="translate(546.646484 0)"/>
      <use xlink:href="#ArialMT-46" transform="translate(574.429688 0)"/>
      <use xlink:href="#ArialMT-52" transform="translate(635.513672 0)"/>
      <use xlink:href="#ArialMT-4f" transform="translate(707.730469 0)"/>
      <use xlink:href="#ArialMT-4d" transform="translate(785.513672 0)"/>
      <use xlink:href="#ArialMT-20" transform="translate(868.814453 0)"/>
      <use xlink:href="#ArialMT-56" transform="translate(896.597656 0)"/>
      <use xlink:href="#ArialMT-45" transform="translate(963.296875 0)"/>
      <use xlink:href="#ArialMT-48" transform="translate(1029.996094 0)"/>
      <use xlink:href="#ArialMT-49" transform="translate(1102.212891 0)"/>
      <use xlink:href="#ArialMT-43" transform="translate(1129.996094 0)"/>
      <use xlink:href="#ArialMT-4c" transform="translate(1202.212891 0)"/>
      <use xlink:href="#ArialMT-45" transform="translate(1257.828125 0)"/>
      <use xlink:href="#ArialMT-2c" transform="translate(1324.527344 0)"/>
      <use xlink:href="#ArialMT-20" transform="translate(1352.310547 0)"/>
      <use xlink:href="#ArialMT-41" transform="translate(1374.59375 0)"/>
      <use xlink:href="#ArialMT-54" transform="translate(1433.917969 0)"/>
      <use xlink:href="#ArialMT-54" transform="translate(1495.001953 0)"/>
      <use xlink:href="#ArialMT-45" transform="translate(1556.085938 0)"/>
      <use xlink:href="#ArialMT-4d" transform="translate(1622.785156 0)"/>
      <use xlink:href="#ArialMT-50" transform="translate(1706.085938 0)"/>
      <use xlink:href="#ArialMT-54" transform="translate(1772.785156 0)"/>
      <use xlink:href="#ArialMT-45" transform="translate(1833.869141 0)"/>
      <use xlink:href="#ArialMT-44" transform="translate(1900.568359 0)"/>
     </g>
    </g>
    <g id="patch_15">
     <path d="M 197.1 260.690625 
L 227.1 260.690625 
L 227.1 250.190625 
L 197.1 250.190625 
z
" style="fill: #8c564b; stroke: #ffffff; stroke-linejoin: miter"/>
    </g>
    <g id="text_15">
     <!-- THEFT FROM MOTOR VEHICLE - ATTEMPT -->
     <g style="fill: #262626" transform="translate(239.1 260.690625) scale(0.15 -0.15)">
      <defs>
       <path id="ArialMT-2d" d="M 203 1375 
L 203 1941 
L 1931 1941 
L 1931 1375 
L 203 1375 
z
" transform="scale(0.015625)"/>
      </defs>
      <use xlink:href="#ArialMT-54"/>
      <use xlink:href="#ArialMT-48" transform="translate(61.083984 0)"/>
      <use xlink:href="#ArialMT-45" transform="translate(133.300781 0)"/>
      <use xlink:href="#ArialMT-46" transform="translate(200 0)"/>
      <use xlink:href="#ArialMT-54" transform="translate(261.083984 0)"/>
      <use xlink:href="#ArialMT-20" transform="translate(320.417969 0)"/>
      <use xlink:href="#ArialMT-46" transform="translate(348.201172 0)"/>
      <use xlink:href="#ArialMT-52" transform="translate(409.285156 0)"/>
      <use xlink:href="#ArialMT-4f" transform="translate(481.501953 0)"/>
      <use xlink:href="#ArialMT-4d" transform="translate(559.285156 0)"/>
      <use xlink:href="#ArialMT-20" transform="translate(642.585938 0)"/>
      <use xlink:href="#ArialMT-4d" transform="translate(670.369141 0)"/>
      <use xlink:href="#ArialMT-4f" transform="translate(753.669922 0)"/>
      <use xlink:href="#ArialMT-54" transform="translate(831.453125 0)"/>
      <use xlink:href="#ArialMT-4f" transform="translate(890.787109 0)"/>
      <use xlink:href="#ArialMT-52" transform="translate(968.570312 0)"/>
      <use xlink:href="#ArialMT-20" transform="translate(1040.787109 0)"/>
      <use xlink:href="#ArialMT-56" transform="translate(1068.570312 0)"/>
      <use xlink:href="#ArialMT-45" transform="translate(1135.269531 0)"/>
      <use xlink:href="#ArialMT-48" transform="translate(1201.96875 0)"/>
      <use xlink:href="#ArialMT-49" transform="translate(1274.185547 0)"/>
      <use xlink:href="#ArialMT-43" transform="translate(1301.96875 0)"/>
      <use xlink:href="#ArialMT-4c" transform="translate(1374.185547 0)"/>
      <use xlink:href="#ArialMT-45" transform="translate(1429.800781 0)"/>
      <use xlink:href="#ArialMT-20" transform="translate(1496.5 0)"/>
      <use xlink:href="#ArialMT-2d" transform="translate(1524.283203 0)"/>
      <use xlink:href="#ArialMT-20" transform="translate(1557.583984 0)"/>
      <use xlink:href="#ArialMT-41" transform="translate(1579.867188 0)"/>
      <use xlink:href="#ArialMT-54" transform="translate(1639.191406 0)"/>
      <use xlink:href="#ArialMT-54" transform="translate(1700.275391 0)"/>
      <use xlink:href="#ArialMT-45" transform="translate(1761.359375 0)"/>
      <use xlink:href="#ArialMT-4d" transform="translate(1828.058594 0)"/>
      <use xlink:href="#ArialMT-50" transform="translate(1911.359375 0)"/>
      <use xlink:href="#ArialMT-54" transform="translate(1978.058594 0)"/>
     </g>
    </g>
    <g id="patch_16">
     <path d="M 197.1 282.897656 
L 227.1 282.897656 
L 227.1 272.397656 
L 197.1 272.397656 
z
" style="fill: #e377c2; stroke: #ffffff; stroke-linejoin: miter"/>
    </g>
    <g id="text_16">
     <!-- THEFT FROM MOTOR VEHICLE - GRAND ($950.01 AND OVER) -->
     <g style="fill: #262626" transform="translate(239.1 282.897656) scale(0.15 -0.15)">
      <defs>
       <path id="ArialMT-4e" d="M 488 0 
L 488 4581 
L 1109 4581 
L 3516 984 
L 3516 4581 
L 4097 4581 
L 4097 0 
L 3475 0 
L 1069 3600 
L 1069 0 
L 488 0 
z
" transform="scale(0.015625)"/>
       <path id="ArialMT-28" d="M 1497 -1347 
Q 1031 -759 709 28 
Q 388 816 388 1659 
Q 388 2403 628 3084 
Q 909 3875 1497 4659 
L 1900 4659 
Q 1522 4009 1400 3731 
Q 1209 3300 1100 2831 
Q 966 2247 966 1656 
Q 966 153 1900 -1347 
L 1497 -1347 
z
" transform="scale(0.015625)"/>
       <path id="ArialMT-24" d="M 1594 -659 
L 1594 -97 
Q 1172 -44 908 92 
Q 644 228 451 531 
Q 259 834 228 1272 
L 794 1378 
Q 859 925 1025 713 
Q 1263 413 1594 378 
L 1594 2169 
Q 1247 2234 884 2438 
Q 616 2588 470 2853 
Q 325 3119 325 3456 
Q 325 4056 750 4428 
Q 1034 4678 1594 4734 
L 1594 5003 
L 1925 5003 
L 1925 4734 
Q 2416 4688 2703 4447 
Q 3072 4141 3147 3606 
L 2566 3519 
Q 2516 3850 2358 4026 
Q 2200 4203 1925 4259 
L 1925 2638 
Q 2350 2531 2488 2472 
Q 2750 2356 2915 2190 
Q 3081 2025 3170 1797 
Q 3259 1569 3259 1303 
Q 3259 719 2887 328 
Q 2516 -63 1925 -91 
L 1925 -659 
L 1594 -659 
z
M 1594 4266 
Q 1266 4216 1077 4003 
Q 888 3791 888 3500 
Q 888 3213 1048 3019 
Q 1209 2825 1594 2709 
L 1594 4266 
z
M 1925 378 
Q 2253 419 2467 662 
Q 2681 906 2681 1266 
Q 2681 1572 2529 1758 
Q 2378 1944 1925 2091 
L 1925 378 
z
" transform="scale(0.015625)"/>
       <path id="ArialMT-35" d="M 266 1200 
L 856 1250 
Q 922 819 1161 601 
Q 1400 384 1738 384 
Q 2144 384 2425 690 
Q 2706 997 2706 1503 
Q 2706 1984 2436 2262 
Q 2166 2541 1728 2541 
Q 1456 2541 1237 2417 
Q 1019 2294 894 2097 
L 366 2166 
L 809 4519 
L 3088 4519 
L 3088 3981 
L 1259 3981 
L 1013 2750 
Q 1425 3038 1878 3038 
Q 2478 3038 2890 2622 
Q 3303 2206 3303 1553 
Q 3303 931 2941 478 
Q 2500 -78 1738 -78 
Q 1113 -78 717 272 
Q 322 622 266 1200 
z
" transform="scale(0.015625)"/>
       <path id="ArialMT-29" d="M 791 -1347 
L 388 -1347 
Q 1322 153 1322 1656 
Q 1322 2244 1188 2822 
Q 1081 3291 891 3722 
Q 769 4003 388 4659 
L 791 4659 
Q 1378 3875 1659 3084 
Q 1900 2403 1900 1659 
Q 1900 816 1576 28 
Q 1253 -759 791 -1347 
z
" transform="scale(0.015625)"/>
      </defs>
      <use xlink:href="#ArialMT-54"/>
      <use xlink:href="#ArialMT-48" transform="translate(61.083984 0)"/>
      <use xlink:href="#ArialMT-45" transform="translate(133.300781 0)"/>
      <use xlink:href="#ArialMT-46" transform="translate(200 0)"/>
      <use xlink:href="#ArialMT-54" transform="translate(261.083984 0)"/>
      <use xlink:href="#ArialMT-20" transform="translate(320.417969 0)"/>
      <use xlink:href="#ArialMT-46" transform="translate(348.201172 0)"/>
      <use xlink:href="#ArialMT-52" transform="translate(409.285156 0)"/>
      <use xlink:href="#ArialMT-4f" transform="translate(481.501953 0)"/>
      <use xlink:href="#ArialMT-4d" transform="translate(559.285156 0)"/>
      <use xlink:href="#ArialMT-20" transform="translate(642.585938 0)"/>
      <use xlink:href="#ArialMT-4d" transform="translate(670.369141 0)"/>
      <use xlink:href="#ArialMT-4f" transform="translate(753.669922 0)"/>
      <use xlink:href="#ArialMT-54" transform="translate(831.453125 0)"/>
      <use xlink:href="#ArialMT-4f" transform="translate(890.787109 0)"/>
      <use xlink:href="#ArialMT-52" transform="translate(968.570312 0)"/>
      <use xlink:href="#ArialMT-20" transform="translate(1040.787109 0)"/>
      <use xlink:href="#ArialMT-56" transform="translate(1068.570312 0)"/>
      <use xlink:href="#ArialMT-45" transform="translate(1135.269531 0)"/>
      <use xlink:href="#ArialMT-48" transform="translate(1201.96875 0)"/>
      <use xlink:href="#ArialMT-49" transform="translate(1274.185547 0)"/>
      <use xlink:href="#ArialMT-43" transform="translate(1301.96875 0)"/>
      <use xlink:href="#ArialMT-4c" transform="translate(1374.185547 0)"/>
      <use xlink:href="#ArialMT-45" transform="translate(1429.800781 0)"/>
      <use xlink:href="#ArialMT-20" transform="translate(1496.5 0)"/>
      <use xlink:href="#ArialMT-2d" transform="translate(1524.283203 0)"/>
      <use xlink:href="#ArialMT-20" transform="translate(1557.583984 0)"/>
      <use xlink:href="#ArialMT-47" transform="translate(1585.367188 0)"/>
      <use xlink:href="#ArialMT-52" transform="translate(1663.150391 0)"/>
      <use xlink:href="#ArialMT-41" transform="translate(1735.367188 0)"/>
      <use xlink:href="#ArialMT-4e" transform="translate(1802.066406 0)"/>
      <use xlink:href="#ArialMT-44" transform="translate(1874.283203 0)"/>
      <use xlink:href="#ArialMT-20" transform="translate(1946.5 0)"/>
      <use xlink:href="#ArialMT-28" transform="translate(1974.283203 0)"/>
      <use xlink:href="#ArialMT-24" transform="translate(2007.583984 0)"/>
      <use xlink:href="#ArialMT-39" transform="translate(2063.199219 0)"/>
      <use xlink:href="#ArialMT-35" transform="translate(2118.814453 0)"/>
      <use xlink:href="#ArialMT-30" transform="translate(2174.429688 0)"/>
      <use xlink:href="#ArialMT-2e" transform="translate(2230.044922 0)"/>
      <use xlink:href="#ArialMT-30" transform="translate(2257.828125 0)"/>
      <use xlink:href="#ArialMT-31" transform="translate(2313.443359 0)"/>
      <use xlink:href="#ArialMT-20" transform="translate(2369.058594 0)"/>
      <use xlink:href="#ArialMT-41" transform="translate(2391.341797 0)"/>
      <use xlink:href="#ArialMT-4e" transform="translate(2458.041016 0)"/>
      <use xlink:href="#ArialMT-44" transform="translate(2530.257812 0)"/>
      <use xlink:href="#ArialMT-20" transform="translate(2602.474609 0)"/>
      <use xlink:href="#ArialMT-4f" transform="translate(2630.257812 0)"/>
      <use xlink:href="#ArialMT-56" transform="translate(2708.041016 0)"/>
      <use xlink:href="#ArialMT-45" transform="translate(2774.740234 0)"/>
      <use xlink:href="#ArialMT-52" transform="translate(2841.439453 0)"/>
      <use xlink:href="#ArialMT-29" transform="translate(2913.65625 0)"/>
     </g>
    </g>
    <g id="patch_17">
     <path d="M 197.1 305.280469 
L 227.1 305.280469 
L 227.1 294.780469 
L 197.1 294.780469 
z
" style="fill: #7f7f7f; stroke: #ffffff; stroke-linejoin: miter"/>
    </g>
    <g id="text_17">
     <!-- THEFT FROM MOTOR VEHICLE - PETTY ($950 &amp; UNDER) -->
     <g style="fill: #262626" transform="translate(239.1 305.280469) scale(0.15 -0.15)">
      <defs>
       <path id="ArialMT-26" d="M 3041 541 
Q 2763 231 2434 76 
Q 2106 -78 1725 -78 
Q 1022 -78 609 397 
Q 275 784 275 1263 
Q 275 1688 548 2030 
Q 822 2372 1366 2631 
Q 1056 2988 953 3209 
Q 850 3431 850 3638 
Q 850 4050 1173 4354 
Q 1497 4659 1988 4659 
Q 2456 4659 2754 4371 
Q 3053 4084 3053 3681 
Q 3053 3028 2188 2566 
L 3009 1519 
Q 3150 1794 3228 2156 
L 3813 2031 
Q 3663 1431 3406 1044 
Q 3722 625 4122 341 
L 3744 -106 
Q 3403 113 3041 541 
z
M 1897 2928 
Q 2263 3144 2370 3306 
Q 2478 3469 2478 3666 
Q 2478 3900 2329 4048 
Q 2181 4197 1959 4197 
Q 1731 4197 1579 4050 
Q 1428 3903 1428 3691 
Q 1428 3584 1483 3467 
Q 1538 3350 1647 3219 
L 1897 2928 
z
M 2688 984 
L 1656 2263 
Q 1200 1991 1040 1758 
Q 881 1525 881 1297 
Q 881 1019 1103 719 
Q 1325 419 1731 419 
Q 1984 419 2254 576 
Q 2525 734 2688 984 
z
" transform="scale(0.015625)"/>
      </defs>
      <use xlink:href="#ArialMT-54"/>
      <use xlink:href="#ArialMT-48" transform="translate(61.083984 0)"/>
      <use xlink:href="#ArialMT-45" transform="translate(133.300781 0)"/>
      <use xlink:href="#ArialMT-46" transform="translate(200 0)"/>
      <use xlink:href="#ArialMT-54" transform="translate(261.083984 0)"/>
      <use xlink:href="#ArialMT-20" transform="translate(320.417969 0)"/>
      <use xlink:href="#ArialMT-46" transform="translate(348.201172 0)"/>
      <use xlink:href="#ArialMT-52" transform="translate(409.285156 0)"/>
      <use xlink:href="#ArialMT-4f" transform="translate(481.501953 0)"/>
      <use xlink:href="#ArialMT-4d" transform="translate(559.285156 0)"/>
      <use xlink:href="#ArialMT-20" transform="translate(642.585938 0)"/>
      <use xlink:href="#ArialMT-4d" transform="translate(670.369141 0)"/>
      <use xlink:href="#ArialMT-4f" transform="translate(753.669922 0)"/>
      <use xlink:href="#ArialMT-54" transform="translate(831.453125 0)"/>
      <use xlink:href="#ArialMT-4f" transform="translate(890.787109 0)"/>
      <use xlink:href="#ArialMT-52" transform="translate(968.570312 0)"/>
      <use xlink:href="#ArialMT-20" transform="translate(1040.787109 0)"/>
      <use xlink:href="#ArialMT-56" transform="translate(1068.570312 0)"/>
      <use xlink:href="#ArialMT-45" transform="translate(1135.269531 0)"/>
      <use xlink:href="#ArialMT-48" transform="translate(1201.96875 0)"/>
      <use xlink:href="#ArialMT-49" transform="translate(1274.185547 0)"/>
      <use xlink:href="#ArialMT-43" transform="translate(1301.96875 0)"/>
      <use xlink:href="#ArialMT-4c" transform="translate(1374.185547 0)"/>
      <use xlink:href="#ArialMT-45" transform="translate(1429.800781 0)"/>
      <use xlink:href="#ArialMT-20" transform="translate(1496.5 0)"/>
      <use xlink:href="#ArialMT-2d" transform="translate(1524.283203 0)"/>
      <use xlink:href="#ArialMT-20" transform="translate(1557.583984 0)"/>
      <use xlink:href="#ArialMT-50" transform="translate(1585.367188 0)"/>
      <use xlink:href="#ArialMT-45" transform="translate(1652.066406 0)"/>
      <use xlink:href="#ArialMT-54" transform="translate(1718.765625 0)"/>
      <use xlink:href="#ArialMT-54" transform="translate(1779.849609 0)"/>
      <use xlink:href="#ArialMT-59" transform="translate(1840.933594 0)"/>
      <use xlink:href="#ArialMT-20" transform="translate(1905.882812 0)"/>
      <use xlink:href="#ArialMT-28" transform="translate(1933.666016 0)"/>
      <use xlink:href="#ArialMT-24" transform="translate(1966.966797 0)"/>
      <use xlink:href="#ArialMT-39" transform="translate(2022.582031 0)"/>
      <use xlink:href="#ArialMT-35" transform="translate(2078.197266 0)"/>
      <use xlink:href="#ArialMT-30" transform="translate(2133.8125 0)"/>
      <use xlink:href="#ArialMT-20" transform="translate(2189.427734 0)"/>
      <use xlink:href="#ArialMT-26" transform="translate(2217.210938 0)"/>
      <use xlink:href="#ArialMT-20" transform="translate(2283.910156 0)"/>
      <use xlink:href="#ArialMT-55" transform="translate(2311.693359 0)"/>
      <use xlink:href="#ArialMT-4e" transform="translate(2383.910156 0)"/>
      <use xlink:href="#ArialMT-44" transform="translate(2456.126953 0)"/>
      <use xlink:href="#ArialMT-45" transform="translate(2528.34375 0)"/>
      <use xlink:href="#ArialMT-52" transform="translate(2595.042969 0)"/>
      <use xlink:href="#ArialMT-29" transform="translate(2667.259766 0)"/>
     </g>
    </g>
    <g id="patch_18">
     <path d="M 197.1 326.674219 
L 227.1 326.674219 
L 227.1 316.174219 
L 197.1 316.174219 
z
" style="fill: #bcbd22; stroke: #ffffff; stroke-linejoin: miter"/>
    </g>
    <g id="text_18">
     <!-- VEHICLE - ATTEMPT STOLEN -->
     <g style="fill: #262626" transform="translate(239.1 326.674219) scale(0.15 -0.15)">
      <use xlink:href="#ArialMT-56"/>
      <use xlink:href="#ArialMT-45" transform="translate(66.699219 0)"/>
      <use xlink:href="#ArialMT-48" transform="translate(133.398438 0)"/>
      <use xlink:href="#ArialMT-49" transform="translate(205.615234 0)"/>
      <use xlink:href="#ArialMT-43" transform="translate(233.398438 0)"/>
      <use xlink:href="#ArialMT-4c" transform="translate(305.615234 0)"/>
      <use xlink:href="#ArialMT-45" transform="translate(361.230469 0)"/>
      <use xlink:href="#ArialMT-20" transform="translate(427.929688 0)"/>
      <use xlink:href="#ArialMT-2d" transform="translate(455.712891 0)"/>
      <use xlink:href="#ArialMT-20" transform="translate(489.013672 0)"/>
      <use xlink:href="#ArialMT-41" transform="translate(511.296875 0)"/>
      <use xlink:href="#ArialMT-54" transform="translate(570.621094 0)"/>
      <use xlink:href="#ArialMT-54" transform="translate(631.705078 0)"/>
      <use xlink:href="#ArialMT-45" transform="translate(692.789062 0)"/>
      <use xlink:href="#ArialMT-4d" transform="translate(759.488281 0)"/>
      <use xlink:href="#ArialMT-50" transform="translate(842.789062 0)"/>
      <use xlink:href="#ArialMT-54" transform="translate(909.488281 0)"/>
      <use xlink:href="#ArialMT-20" transform="translate(968.822266 0)"/>
      <use xlink:href="#ArialMT-53" transform="translate(996.605469 0)"/>
      <use xlink:href="#ArialMT-54" transform="translate(1063.304688 0)"/>
      <use xlink:href="#ArialMT-4f" transform="translate(1122.638672 0)"/>
      <use xlink:href="#ArialMT-4c" transform="translate(1200.421875 0)"/>
      <use xlink:href="#ArialMT-45" transform="translate(1256.037109 0)"/>
      <use xlink:href="#ArialMT-4e" transform="translate(1322.736328 0)"/>
     </g>
    </g>
    <g id="patch_19">
     <path d="M 197.1 347.892187 
L 227.1 347.892187 
L 227.1 337.392187 
L 197.1 337.392187 
z
" style="fill: #17becf; stroke: #ffffff; stroke-linejoin: miter"/>
    </g>
    <g id="text_19">
     <!-- VEHICLE - STOLEN -->
     <g style="fill: #262626" transform="translate(239.1 347.892187) scale(0.15 -0.15)">
      <use xlink:href="#ArialMT-56"/>
      <use xlink:href="#ArialMT-45" transform="translate(66.699219 0)"/>
      <use xlink:href="#ArialMT-48" transform="translate(133.398438 0)"/>
      <use xlink:href="#ArialMT-49" transform="translate(205.615234 0)"/>
      <use xlink:href="#ArialMT-43" transform="translate(233.398438 0)"/>
      <use xlink:href="#ArialMT-4c" transform="translate(305.615234 0)"/>
      <use xlink:href="#ArialMT-45" transform="translate(361.230469 0)"/>
      <use xlink:href="#ArialMT-20" transform="translate(427.929688 0)"/>
      <use xlink:href="#ArialMT-2d" transform="translate(455.712891 0)"/>
      <use xlink:href="#ArialMT-20" transform="translate(489.013672 0)"/>
      <use xlink:href="#ArialMT-53" transform="translate(516.796875 0)"/>
      <use xlink:href="#ArialMT-54" transform="translate(583.496094 0)"/>
      <use xlink:href="#ArialMT-4f" transform="translate(642.830078 0)"/>
      <use xlink:href="#ArialMT-4c" transform="translate(720.613281 0)"/>
      <use xlink:href="#ArialMT-45" transform="translate(776.228516 0)"/>
      <use xlink:href="#ArialMT-4e" transform="translate(842.927734 0)"/>
     </g>
    </g>
   </g>
  </g>
 </g>
</svg>
